<svg width="712" height="210" viewBox="0 0 712 210" fill="none" xmlns="http://www.w3.org/2000/svg">
<path d="M6.35388 46.075C6.19763 45.8842 6.05746 45.7104 5.9334 45.5546C6.08294 45.386 6.25391 45.1955 6.44607 44.9845C7.31029 44.0352 8.60244 42.6718 10.3 41.032C13.6962 37.7513 18.7082 33.3712 25.1555 28.9907C38.0563 20.2256 56.6409 11.5 79.5 11.5C103.873 11.5 122.454 20.2359 134.953 28.9791C141.204 33.3519 145.928 37.723 149.085 40.9946C150.662 42.6299 151.847 43.989 152.633 44.934C152.84 45.1823 153.019 45.402 153.17 45.5905C153.057 45.7617 152.926 45.9572 152.776 46.1751C152.132 47.1106 151.145 48.4597 149.786 50.085C147.07 53.3361 142.873 57.6876 136.983 62.044C125.218 70.7453 106.651 79.5 79.5 79.5C54.8747 79.5 36.295 70.7624 23.8626 62.0229C17.6442 57.6515 12.9679 53.282 9.85147 50.012C8.2937 48.3775 7.12711 47.0192 6.35388 46.075Z" stroke="white" stroke-width="3"/>
<circle cx="81" cy="45" r="24.5" stroke="white" stroke-width="3"/>
<circle cx="81" cy="45" r="21.5" stroke="#77B900" stroke-width="3"/>
<circle cx="81" cy="45" r="9.5" stroke="#77B900" stroke-width="5"/>
<circle cx="100" cy="32" r="7" fill="white"/>
<path d="M190.354 46.075C190.198 45.8842 190.057 45.7104 189.933 45.5546C190.083 45.386 190.254 45.1955 190.446 44.9845C191.31 44.0352 192.602 42.6718 194.3 41.032C197.696 37.7513 202.708 33.3712 209.155 28.9907C222.056 20.2256 240.641 11.5 263.5 11.5C287.873 11.5 306.454 20.2359 318.953 28.9791C325.204 33.3519 329.928 37.723 333.085 40.9946C334.662 42.6299 335.847 43.989 336.633 44.934C336.84 45.1823 337.019 45.402 337.17 45.5905C337.057 45.7617 336.926 45.9572 336.776 46.1751C336.132 47.1106 335.145 48.4597 333.786 50.085C331.07 53.3361 326.873 57.6876 320.983 62.044C309.218 70.7453 290.651 79.5 263.5 79.5C238.875 79.5 220.295 70.7624 207.863 62.0229C201.644 57.6515 196.968 53.282 193.851 50.012C192.294 48.3775 191.127 47.0192 190.354 46.075Z" stroke="white" stroke-width="3"/>
<circle cx="265" cy="45" r="24.5" stroke="white" stroke-width="3"/>
<circle cx="265" cy="45" r="21.5" stroke="#77B900" stroke-width="3"/>
<path d="M265 28.5V45H278" stroke="#77B900" stroke-width="4" stroke-linecap="round" stroke-linejoin="round"/>
<path d="M374.354 46.075C374.198 45.8842 374.057 45.7104 373.933 45.5546C374.083 45.386 374.254 45.1955 374.446 44.9845C375.31 44.0352 376.602 42.6718 378.3 41.032C381.696 37.7513 386.708 33.3712 393.155 28.9907C406.056 20.2256 424.641 11.5 447.5 11.5C471.873 11.5 490.454 20.2359 502.953 28.9791C509.204 33.3519 513.928 37.723 517.085 40.9946C518.662 42.6299 519.847 43.989 520.633 44.934C520.84 45.1823 521.019 45.402 521.17 45.5905C521.057 45.7617 520.926 45.9572 520.776 46.1751C520.132 47.1106 519.145 48.4597 517.786 50.085C515.07 53.3361 510.873 57.6876 504.983 62.044C493.218 70.7453 474.651 79.5 447.5 79.5C422.875 79.5 404.295 70.7624 391.863 62.0229C385.644 57.6515 380.968 53.282 377.851 50.012C376.294 48.3775 375.127 47.0192 374.354 46.075Z" stroke="white" stroke-width="3"/>
<path d="M483.967 41.7183C482.915 29.459 473.088 19.7243 460.789 18.7945C468.688 23.0493 474.058 31.3922 474.058 40.9915C474.058 41.2377 474.027 41.4745 474.02 41.7183H465.929L478.419 57.7938L491.91 41.7183H483.967Z" fill="white"/>
<path d="M422.681 51.0085C422.681 50.7355 422.711 50.4707 422.721 50.2012H431.071L418.582 34.1257L405.09 50.2012H412.765C413.783 62.4978 423.624 72.2757 435.947 73.2067C428.05 68.9495 422.681 60.6078 422.681 51.0085Z" fill="white"/>
<path d="M456 30H439V47H444L442.5 65.25L458 44H446L456 30Z" fill="#77B900"/>
<path d="M558.354 46.075C558.198 45.8842 558.057 45.7104 557.933 45.5546C558.083 45.386 558.254 45.1955 558.446 44.9845C559.31 44.0352 560.602 42.6718 562.3 41.032C565.696 37.7513 570.708 33.3712 577.155 28.9907C590.056 20.2256 608.641 11.5 631.5 11.5C655.873 11.5 674.454 20.2359 686.953 28.9791C693.204 33.3519 697.928 37.723 701.085 40.9946C702.662 42.6299 703.847 43.989 704.633 44.934C704.84 45.1823 705.019 45.402 705.17 45.5905C705.057 45.7617 704.926 45.9572 704.776 46.1751C704.132 47.1106 703.145 48.4597 701.786 50.085C699.07 53.3361 694.873 57.6876 688.983 62.044C677.218 70.7453 658.651 79.5 631.5 79.5C606.875 79.5 588.295 70.7624 575.863 62.0229C569.644 57.6515 564.968 53.282 561.851 50.012C560.294 48.3775 559.127 47.0192 558.354 46.075Z" stroke="white" stroke-width="3"/>
<circle cx="631.5" cy="37.5" r="11.5" fill="#77B900" fill-opacity="0.75" stroke="white" stroke-width="2"/>
<circle cx="622.5" cy="52.5" r="11.5" fill="#77B900" fill-opacity="0.5" stroke="white" stroke-width="2"/>
<circle cx="640.5" cy="52.5" r="11.5" fill="white" fill-opacity="0.45" stroke="white" stroke-width="2"/>
<path d="M6.35388 166.075C6.19763 165.884 6.05746 165.71 5.9334 165.555C6.08294 165.386 6.25391 165.196 6.44607 164.984C7.31029 164.035 8.60244 162.672 10.3 161.032C13.6962 157.751 18.7082 153.371 25.1555 148.991C38.0563 140.226 56.6409 131.5 79.5 131.5C103.873 131.5 122.454 140.236 134.953 148.979C141.204 153.352 145.928 157.723 149.085 160.995C150.662 162.63 151.847 163.989 152.633 164.934C152.84 165.182 153.019 165.402 153.17 165.591C153.057 165.762 152.926 165.957 152.776 166.175C152.132 167.111 151.145 168.46 149.786 170.085C147.07 173.336 142.873 177.688 136.983 182.044C125.218 190.745 106.651 199.5 79.5 199.5C54.8747 199.5 36.295 190.762 23.8626 182.023C17.6442 177.652 12.9679 173.282 9.85147 170.012C8.2937 168.378 7.12711 167.019 6.35388 166.075Z" fill="#77B900" fill-opacity="0.25" stroke="#77B900" stroke-width="3"/>
<circle cx="81" cy="165" r="24.5" stroke="white" stroke-width="3"/>
<circle cx="81" cy="165" r="21.5" stroke="#77B900" stroke-width="3"/>
<circle cx="81" cy="165" r="9.5" stroke="#77B900" stroke-width="5"/>
<circle cx="100" cy="152" r="7" fill="white"/>
<path d="M190.354 166.075C190.198 165.884 190.057 165.71 189.933 165.555C190.083 165.386 190.254 165.196 190.446 164.984C191.31 164.035 192.602 162.672 194.3 161.032C197.696 157.751 202.708 153.371 209.155 148.991C222.056 140.226 240.641 131.5 263.5 131.5C287.873 131.5 306.454 140.236 318.953 148.979C325.204 153.352 329.928 157.723 333.085 160.995C334.662 162.63 335.847 163.989 336.633 164.934C336.84 165.182 337.019 165.402 337.17 165.591C337.057 165.762 336.926 165.957 336.776 166.175C336.132 167.111 335.145 168.46 333.786 170.085C331.07 173.336 326.873 177.688 320.983 182.044C309.218 190.745 290.651 199.5 263.5 199.5C238.875 199.5 220.295 190.762 207.863 182.023C201.644 177.652 196.968 173.282 193.851 170.012C192.294 168.378 191.127 167.019 190.354 166.075Z" fill="#77B900" fill-opacity="0.25" stroke="#77B900" stroke-width="3"/>
<circle cx="265" cy="165" r="24.5" stroke="white" stroke-width="3"/>
<circle cx="265" cy="165" r="21.5" stroke="#77B900" stroke-width="3"/>
<path d="M265 148.5V165H278" stroke="#77B900" stroke-width="4" stroke-linecap="round" stroke-linejoin="round"/>
<path d="M374.354 166.075C374.198 165.884 374.057 165.71 373.933 165.555C374.083 165.386 374.254 165.196 374.446 164.984C375.31 164.035 376.602 162.672 378.3 161.032C381.696 157.751 386.708 153.371 393.155 148.991C406.056 140.226 424.641 131.5 447.5 131.5C471.873 131.5 490.454 140.236 502.953 148.979C509.204 153.352 513.928 157.723 517.085 160.995C518.662 162.63 519.847 163.989 520.633 164.934C520.84 165.182 521.019 165.402 521.17 165.591C521.057 165.762 520.926 165.957 520.776 166.175C520.132 167.111 519.145 168.46 517.786 170.085C515.07 173.336 510.873 177.688 504.983 182.044C493.218 190.745 474.651 199.5 447.5 199.5C422.875 199.5 404.295 190.762 391.863 182.023C385.644 177.652 380.968 173.282 377.851 170.012C376.294 168.378 375.127 167.019 374.354 166.075Z" fill="#77B900" fill-opacity="0.25" stroke="#77B900" stroke-width="3"/>
<path d="M483.967 161.718C482.915 149.459 473.088 139.724 460.789 138.794C468.688 143.049 474.058 151.392 474.058 160.991C474.058 161.238 474.027 161.474 474.02 161.718H465.929L478.419 177.794L491.91 161.718H483.967Z" fill="white"/>
<path d="M422.681 171.009C422.681 170.736 422.711 170.471 422.721 170.201H431.071L418.582 154.126L405.09 170.201H412.765C413.783 182.498 423.624 192.276 435.947 193.207C428.05 188.95 422.681 180.608 422.681 171.009Z" fill="white"/>
<path d="M456 150H439V167H444L442.5 185.25L458 164H446L456 150Z" fill="#77B900"/>
<path d="M558.354 166.075C558.198 165.884 558.057 165.71 557.933 165.555C558.083 165.386 558.254 165.196 558.446 164.984C559.31 164.035 560.602 162.672 562.3 161.032C565.696 157.751 570.708 153.371 577.155 148.991C590.056 140.226 608.641 131.5 631.5 131.5C655.873 131.5 674.454 140.236 686.953 148.979C693.204 153.352 697.928 157.723 701.085 160.995C702.662 162.63 703.847 163.989 704.633 164.934C704.84 165.182 705.019 165.402 705.17 165.591C705.057 165.762 704.926 165.957 704.776 166.175C704.132 167.111 703.145 168.46 701.786 170.085C699.07 173.336 694.873 177.688 688.983 182.044C677.218 190.745 658.651 199.5 631.5 199.5C606.875 199.5 588.295 190.762 575.863 182.023C569.644 177.652 564.968 173.282 561.851 170.012C560.294 168.378 559.127 167.019 558.354 166.075Z" fill="#77B900" fill-opacity="0.25" stroke="#77B900" stroke-width="3"/>
<circle cx="631.5" cy="157.5" r="11.5" fill="#77B900" fill-opacity="0.75" stroke="white" stroke-width="2"/>
<circle cx="622.5" cy="172.5" r="11.5" fill="#77B900" fill-opacity="0.5" stroke="white" stroke-width="2"/>
<circle cx="640.5" cy="172.5" r="11.5" fill="white" fill-opacity="0.45" stroke="white" stroke-width="2"/>
</svg>
