<svg width="468" height="48" viewBox="0 0 468 48" fill="none" xmlns="http://www.w3.org/2000/svg">
<path d="M39 14.8505C37.8742 15.3361 36.6807 15.6523 35.4593 15.7885C36.7535 15.0484 37.7182 13.8569 38.1626 12.45C36.9578 13.1571 35.6369 13.6521 34.2593 13.9125C33.6946 13.3207 33.0149 12.8466 32.2605 12.5182C31.5062 12.1899 30.6925 12.0139 29.8678 12.0008C29.0431 11.9877 28.2241 12.1377 27.4594 12.4419C26.6947 12.7461 25.9998 13.1984 25.4159 13.7719C24.8346 14.3272 24.3751 14.9938 24.0656 15.7306C23.7562 16.4675 23.6033 17.2589 23.6165 18.0561C23.6193 18.522 23.6714 18.9863 23.7717 19.4416C21.3043 19.3305 18.8904 18.6953 16.6957 17.5798C14.5297 16.4906 12.6192 14.9674 11.087 13.108C10.5319 14.0333 10.2425 15.0896 10.2496 16.1641C10.242 17.1738 10.4978 18.1686 10.9924 19.0532C11.4699 19.9217 12.1562 20.6619 12.9913 21.2091C12.0155 21.1751 11.0622 20.9109 10.2117 20.4387V20.5138C10.1922 21.9217 10.6889 23.2894 11.6107 24.366C12.5029 25.4483 13.7527 26.1881 15.1422 26.4564C14.614 26.5932 14.0702 26.6624 13.5241 26.6625C13.1369 26.6592 12.7504 26.6277 12.3678 26.5681C12.7627 27.7703 13.529 28.8212 14.5597 29.574C15.5904 30.3269 16.8342 30.7441 18.1174 30.7676C15.9511 32.4696 13.2545 33.3835 10.483 33.355C9.98768 33.358 9.49254 33.3333 9 33.2812C11.8079 35.0795 15.0912 36.0248 18.4409 35.9995C20.5343 36.0143 22.6143 35.6689 24.587 34.9787C26.3795 34.3672 28.0441 33.4395 29.4991 32.2411C30.8564 31.0984 32.0394 29.7693 33.0117 28.2945C33.9722 26.8558 34.7129 25.286 35.2102 23.6354C35.6872 22.0557 35.9312 20.4168 35.9348 18.7688C35.9348 18.4187 35.9285 18.1561 35.9159 17.981C37.1199 17.1207 38.1634 16.0615 39 14.8505Z" fill="#808080"/>
<path d="M95.8157 12.9348C95.526 12.6342 95.1777 12.3962 94.7923 12.2355C94.407 12.0747 93.9928 11.9947 93.5753 12.0003H75.1747C74.7573 11.9948 74.3432 12.0749 73.958 12.2357C73.5728 12.3964 73.2246 12.6344 72.9348 12.9348C72.6343 13.2245 72.3963 13.5727 72.2355 13.9579C72.0748 14.3432 71.9947 14.7573 72.0003 15.1747V33.5753C71.9947 33.9927 72.0748 34.4068 72.2355 34.7921C72.3963 35.1773 72.6343 35.5255 72.9348 35.8152C73.2245 36.1157 73.5727 36.3536 73.958 36.5144C74.3432 36.6751 74.7573 36.7552 75.1747 36.7497H93.5753C94.4158 36.7452 95.2206 36.4093 95.815 35.815C96.4093 35.2206 96.7452 34.4159 96.7497 33.5753V15.1747C96.7553 14.7573 96.6753 14.3433 96.5147 13.958C96.354 13.5728 96.1161 13.2246 95.8157 12.9348ZM80.8869 20.9187C81.3475 20.4618 81.8949 20.1017 82.4968 19.8596C83.0987 19.6175 83.743 19.4983 84.3917 19.509C85.0429 19.4973 85.69 19.6161 86.2947 19.8583C86.8993 20.1004 87.4494 20.4612 87.9126 20.9192C88.3735 21.3591 88.7403 21.888 88.991 22.4737C89.2417 23.0595 89.3709 23.69 89.3709 24.3271C89.3709 24.9643 89.2417 25.5948 88.991 26.1805C88.7403 26.7663 88.3735 27.2951 87.9126 27.735C87.4495 28.1931 86.8994 28.5539 86.2947 28.7961C85.69 29.0383 85.043 29.157 84.3917 29.1452C83.743 29.1558 83.0987 29.0365 82.4968 28.7944C81.8949 28.5522 81.3475 28.192 80.8869 27.735C80.4259 27.2951 80.0589 26.7663 79.8081 26.1805C79.5574 25.5947 79.4281 24.9641 79.4281 24.3269C79.4281 23.6896 79.5574 23.059 79.8081 22.4732C80.0589 21.8874 80.4259 21.3586 80.8869 20.9187ZM93.9466 32.9168C93.9495 33.0471 93.9252 33.1766 93.8753 33.2971C93.8253 33.4175 93.7509 33.5262 93.6566 33.6162C93.5658 33.7072 93.4577 33.7791 93.3387 33.8275C93.2196 33.8759 93.0921 33.9 92.9636 33.8982H75.7385C75.6087 33.9008 75.4797 33.8772 75.3592 33.8287C75.2388 33.7802 75.1294 33.7079 75.0376 33.6161C74.9458 33.5243 74.8734 33.4149 74.825 33.2945C74.7765 33.174 74.7529 33.045 74.7555 32.9152V22.4736H77.0271C76.8112 23.1563 76.7023 23.8683 76.7043 24.5843C76.6908 25.573 76.8846 26.5536 77.2734 27.4628C77.6621 28.372 78.2372 29.1896 78.9613 29.8629C79.6749 30.571 80.523 31.1289 81.4557 31.5039C82.3883 31.8789 83.3866 32.0633 84.3917 32.0463C85.746 32.0568 87.0795 31.7121 88.259 31.0466C89.4163 30.4039 90.3834 29.4673 91.0627 28.3312C91.7463 27.2018 92.1033 25.905 92.0941 24.5848C92.096 23.8688 91.9872 23.1568 91.7713 22.4741H93.9466V32.9152V32.9168ZM93.9466 18.5277C93.9482 18.6742 93.9205 18.8195 93.8652 18.9552C93.8098 19.0909 93.728 19.2141 93.6244 19.3178C93.5208 19.4214 93.3976 19.5033 93.262 19.5587C93.1263 19.6141 92.981 19.6418 92.8345 19.6403H90.0313C89.8849 19.6418 89.7397 19.6141 89.6042 19.5588C89.4686 19.5035 89.3455 19.4216 89.242 19.3181C89.1384 19.2146 89.0566 19.0915 89.0013 18.9559C88.946 18.8204 88.9182 18.6751 88.9198 18.5288V15.8676C88.9183 15.7223 88.9461 15.5782 89.0016 15.4439C89.0571 15.3096 89.139 15.1878 89.2426 15.0859C89.344 14.979 89.4665 14.8945 89.6024 14.8376C89.7383 14.7807 89.8846 14.7528 90.0319 14.7555H92.8355C92.9829 14.7527 93.1293 14.7806 93.2653 14.8375C93.4013 14.8943 93.5239 14.979 93.6254 15.0859C93.729 15.1878 93.811 15.3096 93.8664 15.4439C93.9219 15.5782 93.9497 15.7223 93.9482 15.8676V18.5261L93.9466 18.5277Z" fill="#808080"/>
<path d="M153.886 24.1728C153.772 23.6334 153.501 23.1442 153.11 22.7722C152.718 22.4003 152.227 22.164 151.702 22.0957C150.028 21.9062 147.502 21.8114 144.125 21.8114C140.749 21.8114 138.228 21.9062 136.563 22.0957C136.038 22.1568 135.546 22.3911 135.158 22.7646C134.761 23.1373 134.484 23.6292 134.365 24.1728C134.085 25.8159 133.966 27.4844 134.01 29.1526C133.963 30.8209 134.082 32.4898 134.365 34.1325C134.476 34.6776 134.751 35.1713 135.15 35.5406C135.537 35.9113 136.028 36.141 136.55 36.1951C139.068 36.4309 141.597 36.53 144.125 36.4922C146.654 36.5295 149.183 36.4298 151.701 36.1935C152.221 36.1403 152.71 35.9108 153.093 35.5401C153.49 35.1674 153.767 34.6754 153.885 34.1319C154.165 32.4888 154.284 30.8203 154.24 29.1521C154.287 27.484 154.169 25.8153 153.886 24.1728ZM139.785 25.6098H138.324V33.7052H136.959V25.6098H135.527V24.2725H139.785V25.6098ZM143.471 33.7046H142.256V32.9366C142.094 33.1747 141.887 33.375 141.647 33.5245C141.408 33.674 141.14 33.7693 140.863 33.8044C140.693 33.8267 140.521 33.7863 140.376 33.6902C140.232 33.5941 140.124 33.4483 140.071 33.2779C139.986 32.9394 139.949 32.5893 139.962 32.2394V26.6766H141.177V31.8554C141.172 32.0217 141.176 32.1883 141.191 32.3541C141.19 32.3937 141.197 32.433 141.211 32.4698C141.225 32.5066 141.246 32.54 141.273 32.5679C141.3 32.5959 141.332 32.6178 141.367 32.6324C141.402 32.647 141.44 32.654 141.478 32.6528C141.643 32.6225 141.799 32.5529 141.934 32.4492C142.069 32.3456 142.179 32.2108 142.256 32.0554V26.6799H143.471V33.7052V33.7046ZM148.112 31.5988C148.133 32.0768 148.092 32.5556 147.989 33.0219C147.943 33.2512 147.82 33.4558 147.642 33.5991C147.464 33.7424 147.244 33.815 147.02 33.8038C146.765 33.7815 146.519 33.6997 146.299 33.5643C146.079 33.4289 145.892 33.2435 145.75 33.0219V33.7046H144.536V24.2725H145.75V27.3599C145.891 27.1379 146.078 26.953 146.299 26.8198C146.519 26.6865 146.766 26.6084 147.02 26.5918C147.246 26.5819 147.468 26.6568 147.646 26.8029C147.824 26.9491 147.946 27.1569 147.99 27.3887C148.093 27.85 148.135 28.3242 148.112 28.7974V31.5999L148.112 31.5988ZM152.728 30.435H150.281V31.6708C150.281 32.3251 150.49 32.6523 150.909 32.6523C151.046 32.6591 151.18 32.6091 151.282 32.5131C151.385 32.4171 151.447 32.2829 151.455 32.1396C151.481 31.8512 151.49 31.5614 151.482 31.2718H152.724V31.4569C152.733 31.7323 152.724 32.0079 152.697 32.2821C152.663 32.5586 152.565 32.8222 152.411 33.0502C152.248 33.2982 152.027 33.4981 151.769 33.6303C151.51 33.7625 151.223 33.8225 150.936 33.8044C150.653 33.8171 150.37 33.7577 150.114 33.6314C149.857 33.505 149.633 33.3155 149.462 33.079C149.161 32.5887 149.022 32.0091 149.066 31.4286V28.9675C149.023 28.3891 149.157 27.8112 149.448 27.3172C149.623 27.0907 149.845 26.9079 150.097 26.7824C150.348 26.6569 150.623 26.5917 150.902 26.5917C151.181 26.5917 151.456 26.6569 151.708 26.7824C151.959 26.9079 152.181 27.0907 152.356 27.3172C152.638 27.8147 152.767 28.3909 152.725 28.9675V30.4333L152.728 30.435ZM146.364 27.7439C146.247 27.7505 146.132 27.7816 146.027 27.8354C145.921 27.8892 145.827 27.9646 145.75 28.057V32.3392C145.827 32.4316 145.921 32.507 146.027 32.5608C146.132 32.6146 146.247 32.6457 146.364 32.6523C146.718 32.6523 146.895 32.3345 146.895 31.6991V28.6971C146.896 28.0616 146.719 27.7439 146.364 27.7439ZM150.896 27.7439C150.487 27.7439 150.282 28.0663 150.282 28.711V29.3654H151.511V28.7115C151.511 28.0664 151.306 27.7439 150.896 27.7439ZM138.993 16.6753V20.5319H140.358V16.6753L142.01 11H140.617L139.689 14.7407L138.72 11H137.273C137.528 11.7969 137.824 12.6836 138.161 13.6601C138.501 14.6452 138.779 15.6524 138.993 16.6753ZM143.839 20.6305C144.119 20.6452 144.398 20.5866 144.651 20.4599C144.903 20.3332 145.122 20.1425 145.286 19.9051C145.579 19.4015 145.713 18.8141 145.668 18.2265V15.7366C145.712 15.1542 145.578 14.5723 145.286 14.074C145.122 13.8362 144.904 13.6451 144.651 13.518C144.398 13.3909 144.119 13.3319 143.839 13.3464C143.561 13.335 143.286 13.3952 143.036 13.5217C142.786 13.6483 142.57 13.8372 142.406 14.0718C142.114 14.5701 141.981 15.152 142.024 15.7343V18.2243C141.982 18.8116 142.115 19.3983 142.406 19.9029C142.569 20.1379 142.785 20.3272 143.035 20.4542C143.285 20.5811 143.561 20.6417 143.839 20.6305ZM143.252 15.48C143.252 14.8257 143.448 14.4985 143.839 14.4985C144.23 14.4985 144.426 14.8257 144.426 15.48V18.4675C144.426 19.1326 144.23 19.4651 143.839 19.4651C143.448 19.4651 143.252 19.1326 143.252 18.4675V15.48ZM147.593 20.6305C147.875 20.598 148.146 20.5024 148.389 20.3501C148.631 20.1978 148.84 19.9925 148.999 19.7482V20.5319H150.242V13.4317H148.999V18.8521C148.923 19.0099 148.814 19.1471 148.679 19.2529C148.543 19.3588 148.387 19.4302 148.22 19.4617C148.182 19.462 148.143 19.454 148.107 19.4382C148.072 19.4224 148.039 19.3991 148.012 19.3698C147.986 19.3404 147.965 19.3057 147.951 19.2677C147.938 19.2296 147.932 19.1891 147.934 19.1486C147.918 18.9829 147.914 18.8163 147.92 18.6499V13.4317H146.678V19.0356C146.664 19.3949 146.701 19.7543 146.788 20.1024C146.844 20.2729 146.955 20.4182 147.101 20.5143C147.248 20.6103 147.421 20.6513 147.593 20.6305H147.593Z" fill="#808080"/>
<path d="M198.198 36.4825V33.433H192.015C192.009 33.3055 192 33.2062 192 33.1075C192 27.3708 192.001 21.6341 192.003 15.8973C192.004 15.7278 192.031 15.5594 192.084 15.3983C192.54 14.0161 193.007 12.6355 193.461 11.2499C193.467 11.2119 193.48 11.1753 193.5 11.1423C193.52 11.1093 193.546 11.0805 193.576 11.0576C193.607 11.0347 193.642 11.0181 193.68 11.0088C193.717 10.9994 193.756 10.9975 193.794 11.0032C201.36 11.0091 208.926 11.0108 216.491 11.0082H216.745V11.3292C216.745 16.2734 216.747 21.2177 216.749 26.1619C216.753 26.2542 216.737 26.3463 216.701 26.4315C216.666 26.5168 216.612 26.5932 216.543 26.6554C214.349 28.8395 212.157 31.028 209.969 33.2206C209.907 33.289 209.831 33.3428 209.745 33.3782C209.66 33.4135 209.568 33.4296 209.475 33.4252C208.146 33.4158 206.812 33.4252 205.48 33.4152C205.365 33.4081 205.25 33.4268 205.143 33.47C205.036 33.5132 204.939 33.5797 204.861 33.6647C203.983 34.5618 203.091 35.4462 202.197 36.3261C202.109 36.4185 201.992 36.4774 201.865 36.4924C200.675 36.5041 199.483 36.4991 198.295 36.498C198.262 36.4952 198.23 36.49 198.198 36.4825ZM195.843 13.3031V29.5851H201.272V32.6712C201.356 32.5913 201.403 32.5486 201.448 32.5048C202.365 31.5922 203.283 30.6812 204.193 29.7631C204.249 29.7019 204.318 29.6538 204.395 29.6221C204.471 29.5904 204.554 29.5759 204.636 29.5795C206.535 29.5858 208.433 29.5845 210.332 29.5757C210.485 29.5691 210.631 29.5086 210.744 29.4049C211.927 28.2405 213.098 27.0596 214.278 25.8908C214.339 25.8345 214.386 25.7656 214.417 25.689C214.449 25.6124 214.463 25.5298 214.458 25.4472C214.457 21.4929 214.457 17.5391 214.457 13.5858V13.3031H195.843ZM204.364 17.9937V24.8756H202.067V17.9937H204.363H204.364ZM210.539 24.8844H208.284V17.9932H210.539V24.8844Z" fill="#808080"/>
<path d="M279 14.8505C277.874 15.3361 276.681 15.6523 275.459 15.7885C276.753 15.0484 277.718 13.8569 278.163 12.45C276.958 13.1571 275.637 13.6521 274.259 13.9125C273.695 13.3207 273.015 12.8466 272.261 12.5182C271.506 12.1899 270.693 12.0139 269.868 12.0008C269.043 11.9877 268.224 12.1377 267.459 12.4419C266.695 12.7461 266 13.1984 265.416 13.7719C264.835 14.3272 264.375 14.9938 264.066 15.7306C263.756 16.4675 263.603 17.2589 263.617 18.0561C263.619 18.522 263.671 18.9863 263.772 19.4416C261.304 19.3305 258.89 18.6953 256.696 17.5798C254.53 16.4906 252.619 14.9674 251.087 13.108C250.532 14.0333 250.242 15.0896 250.25 16.1641C250.242 17.1738 250.498 18.1686 250.992 19.0532C251.47 19.9217 252.156 20.6619 252.991 21.2091C252.015 21.1751 251.062 20.9109 250.212 20.4387V20.5138C250.192 21.9217 250.689 23.2894 251.611 24.366C252.503 25.4483 253.753 26.1881 255.142 26.4564C254.614 26.5932 254.07 26.6624 253.524 26.6625C253.137 26.6592 252.75 26.6277 252.368 26.5681C252.763 27.7703 253.529 28.8212 254.56 29.574C255.59 30.3269 256.834 30.7441 258.117 30.7676C255.951 32.4696 253.255 33.3835 250.483 33.355C249.988 33.358 249.493 33.3333 249 33.2812C251.808 35.0795 255.091 36.0248 258.441 35.9995C260.534 36.0143 262.614 35.6689 264.587 34.9787C266.38 34.3672 268.044 33.4395 269.499 32.2411C270.856 31.0984 272.039 29.7693 273.012 28.2945C273.972 26.8558 274.713 25.286 275.21 23.6354C275.687 22.0557 275.931 20.4168 275.935 18.7688C275.935 18.4187 275.928 18.1561 275.916 17.981C277.12 17.1207 278.163 16.0615 279 14.8505Z" fill="#77B900"/>
<path d="M335.816 12.9348C335.526 12.6342 335.178 12.3962 334.792 12.2355C334.407 12.0747 333.993 11.9947 333.575 12.0003H315.175C314.757 11.9948 314.343 12.0749 313.958 12.2357C313.573 12.3964 313.225 12.6344 312.935 12.9348C312.634 13.2245 312.396 13.5727 312.236 13.9579C312.075 14.3432 311.995 14.7573 312 15.1747V33.5753C311.995 33.9927 312.075 34.4068 312.236 34.7921C312.396 35.1773 312.634 35.5255 312.935 35.8152C313.225 36.1157 313.573 36.3536 313.958 36.5144C314.343 36.6751 314.757 36.7552 315.175 36.7497H333.575C334.416 36.7452 335.221 36.4093 335.815 35.815C336.409 35.2206 336.745 34.4159 336.75 33.5753V15.1747C336.755 14.7573 336.675 14.3433 336.515 13.958C336.354 13.5728 336.116 13.2246 335.816 12.9348ZM320.887 20.9187C321.348 20.4618 321.895 20.1017 322.497 19.8596C323.099 19.6175 323.743 19.4983 324.392 19.509C325.043 19.4973 325.69 19.6161 326.295 19.8583C326.899 20.1004 327.449 20.4612 327.913 20.9192C328.373 21.3591 328.74 21.888 328.991 22.4737C329.242 23.0595 329.371 23.69 329.371 24.3271C329.371 24.9643 329.242 25.5948 328.991 26.1805C328.74 26.7663 328.373 27.2951 327.913 27.735C327.449 28.1931 326.899 28.5539 326.295 28.7961C325.69 29.0383 325.043 29.157 324.392 29.1452C323.743 29.1558 323.099 29.0365 322.497 28.7944C321.895 28.5522 321.348 28.192 320.887 27.735C320.426 27.2951 320.059 26.7663 319.808 26.1805C319.557 25.5947 319.428 24.9641 319.428 24.3269C319.428 23.6896 319.557 23.059 319.808 22.4732C320.059 21.8874 320.426 21.3586 320.887 20.9187ZM333.947 32.9168C333.949 33.0471 333.925 33.1766 333.875 33.2971C333.825 33.4175 333.751 33.5262 333.657 33.6162C333.566 33.7072 333.458 33.7791 333.339 33.8275C333.22 33.8759 333.092 33.9 332.964 33.8982H315.739C315.609 33.9008 315.48 33.8772 315.359 33.8287C315.239 33.7802 315.129 33.7079 315.038 33.6161C314.946 33.5243 314.873 33.4149 314.825 33.2945C314.777 33.174 314.753 33.045 314.756 32.9152V22.4736H317.027C316.811 23.1563 316.702 23.8683 316.704 24.5843C316.691 25.573 316.885 26.5536 317.273 27.4628C317.662 28.372 318.237 29.1896 318.961 29.8629C319.675 30.571 320.523 31.1289 321.456 31.5039C322.388 31.8789 323.387 32.0633 324.392 32.0463C325.746 32.0568 327.079 31.7121 328.259 31.0466C329.416 30.4039 330.383 29.4673 331.063 28.3312C331.746 27.2018 332.103 25.905 332.094 24.5848C332.096 23.8688 331.987 23.1568 331.771 22.4741H333.947V32.9152V32.9168ZM333.947 18.5277C333.948 18.6742 333.92 18.8195 333.865 18.9552C333.81 19.0909 333.728 19.2141 333.624 19.3178C333.521 19.4214 333.398 19.5033 333.262 19.5587C333.126 19.6141 332.981 19.6418 332.834 19.6403H330.031C329.885 19.6418 329.74 19.6141 329.604 19.5588C329.469 19.5035 329.345 19.4216 329.242 19.3181C329.138 19.2146 329.057 19.0915 329.001 18.9559C328.946 18.8204 328.918 18.6751 328.92 18.5288V15.8676C328.918 15.7223 328.946 15.5782 329.002 15.4439C329.057 15.3096 329.139 15.1878 329.243 15.0859C329.344 14.979 329.467 14.8945 329.602 14.8376C329.738 14.7807 329.885 14.7528 330.032 14.7555H332.836C332.983 14.7527 333.129 14.7806 333.265 14.8375C333.401 14.8943 333.524 14.979 333.625 15.0859C333.729 15.1878 333.811 15.3096 333.866 15.4439C333.922 15.5782 333.95 15.7223 333.948 15.8676V18.5261L333.947 18.5277Z" fill="#77B900"/>
<path d="M393.886 24.1728C393.772 23.6334 393.501 23.1442 393.11 22.7722C392.718 22.4003 392.227 22.164 391.702 22.0957C390.028 21.9062 387.502 21.8114 384.125 21.8114C380.749 21.8114 378.228 21.9062 376.563 22.0957C376.038 22.1568 375.546 22.3911 375.158 22.7646C374.761 23.1373 374.484 23.6292 374.365 24.1728C374.085 25.8159 373.966 27.4844 374.01 29.1526C373.963 30.8209 374.082 32.4898 374.365 34.1325C374.476 34.6776 374.751 35.1713 375.15 35.5406C375.537 35.9113 376.028 36.141 376.55 36.1951C379.068 36.4309 381.597 36.53 384.125 36.4922C386.654 36.5295 389.183 36.4298 391.701 36.1935C392.221 36.1403 392.71 35.9108 393.093 35.5401C393.49 35.1674 393.767 34.6754 393.885 34.1319C394.165 32.4888 394.284 30.8203 394.24 29.1521C394.287 27.484 394.169 25.8153 393.886 24.1728ZM379.785 25.6098H378.324V33.7052H376.959V25.6098H375.527V24.2725H379.785V25.6098ZM383.471 33.7046H382.256V32.9366C382.094 33.1747 381.887 33.375 381.647 33.5245C381.408 33.674 381.14 33.7693 380.863 33.8044C380.693 33.8267 380.521 33.7863 380.376 33.6902C380.232 33.5941 380.124 33.4483 380.071 33.2779C379.986 32.9394 379.949 32.5893 379.962 32.2394V26.6766H381.177V31.8554C381.172 32.0217 381.176 32.1883 381.191 32.3541C381.19 32.3937 381.197 32.433 381.211 32.4698C381.225 32.5066 381.246 32.54 381.273 32.5679C381.3 32.5959 381.332 32.6178 381.367 32.6324C381.402 32.647 381.44 32.654 381.478 32.6528C381.643 32.6225 381.799 32.5529 381.934 32.4492C382.069 32.3456 382.179 32.2108 382.256 32.0554V26.6799H383.471V33.7052V33.7046ZM388.112 31.5988C388.133 32.0768 388.092 32.5556 387.989 33.0219C387.943 33.2512 387.82 33.4558 387.642 33.5991C387.464 33.7424 387.244 33.815 387.02 33.8038C386.765 33.7815 386.519 33.6997 386.299 33.5643C386.079 33.4289 385.892 33.2435 385.75 33.0219V33.7046H384.536V24.2725H385.75V27.3599C385.891 27.1379 386.078 26.953 386.299 26.8198C386.519 26.6865 386.766 26.6084 387.02 26.5918C387.246 26.5819 387.468 26.6568 387.646 26.8029C387.824 26.9491 387.946 27.1569 387.99 27.3887C388.093 27.85 388.135 28.3242 388.112 28.7974V31.5999L388.112 31.5988ZM392.728 30.435H390.281V31.6708C390.281 32.3251 390.49 32.6523 390.909 32.6523C391.046 32.6591 391.18 32.6091 391.282 32.5131C391.385 32.4171 391.447 32.2829 391.455 32.1396C391.481 31.8512 391.49 31.5614 391.482 31.2718H392.724V31.4569C392.733 31.7323 392.724 32.0079 392.697 32.2821C392.663 32.5586 392.565 32.8222 392.411 33.0502C392.248 33.2982 392.027 33.4981 391.769 33.6303C391.51 33.7625 391.223 33.8225 390.936 33.8044C390.653 33.8171 390.37 33.7577 390.114 33.6314C389.857 33.505 389.633 33.3155 389.462 33.079C389.161 32.5887 389.022 32.0091 389.066 31.4286V28.9675C389.023 28.3891 389.157 27.8112 389.448 27.3172C389.623 27.0907 389.845 26.9079 390.097 26.7824C390.348 26.6569 390.623 26.5917 390.902 26.5917C391.181 26.5917 391.456 26.6569 391.708 26.7824C391.959 26.9079 392.181 27.0907 392.356 27.3172C392.638 27.8147 392.767 28.3909 392.725 28.9675V30.4333L392.728 30.435ZM386.364 27.7439C386.247 27.7505 386.132 27.7816 386.027 27.8354C385.921 27.8892 385.827 27.9646 385.75 28.057V32.3392C385.827 32.4316 385.921 32.507 386.027 32.5608C386.132 32.6146 386.247 32.6457 386.364 32.6523C386.718 32.6523 386.895 32.3345 386.895 31.6991V28.6971C386.896 28.0616 386.719 27.7439 386.364 27.7439ZM390.896 27.7439C390.487 27.7439 390.282 28.0663 390.282 28.711V29.3654H391.511V28.7115C391.511 28.0664 391.306 27.7439 390.896 27.7439ZM378.993 16.6753V20.5319H380.358V16.6753L382.01 11H380.617L379.689 14.7407L378.72 11H377.273C377.528 11.7969 377.824 12.6836 378.161 13.6601C378.501 14.6452 378.779 15.6524 378.993 16.6753ZM383.839 20.6305C384.119 20.6452 384.398 20.5866 384.651 20.4599C384.903 20.3332 385.122 20.1425 385.286 19.9051C385.579 19.4015 385.713 18.8141 385.668 18.2265V15.7366C385.712 15.1542 385.578 14.5723 385.286 14.074C385.122 13.8362 384.904 13.6451 384.651 13.518C384.398 13.3909 384.119 13.3319 383.839 13.3464C383.561 13.335 383.286 13.3952 383.036 13.5217C382.786 13.6483 382.57 13.8372 382.406 14.0718C382.114 14.5701 381.981 15.152 382.024 15.7343V18.2243C381.982 18.8116 382.115 19.3983 382.406 19.9029C382.569 20.1379 382.785 20.3272 383.035 20.4542C383.285 20.5811 383.561 20.6417 383.839 20.6305ZM383.252 15.48C383.252 14.8257 383.448 14.4985 383.839 14.4985C384.23 14.4985 384.426 14.8257 384.426 15.48V18.4675C384.426 19.1326 384.23 19.4651 383.839 19.4651C383.448 19.4651 383.252 19.1326 383.252 18.4675V15.48ZM387.593 20.6305C387.875 20.598 388.146 20.5024 388.389 20.3501C388.631 20.1978 388.84 19.9925 388.999 19.7482V20.5319H390.242V13.4317H388.999V18.8521C388.923 19.0099 388.814 19.1471 388.679 19.2529C388.543 19.3588 388.387 19.4302 388.22 19.4617C388.182 19.462 388.143 19.454 388.107 19.4382C388.072 19.4224 388.039 19.3991 388.012 19.3698C387.986 19.3404 387.965 19.3057 387.951 19.2677C387.938 19.2296 387.932 19.1891 387.934 19.1486C387.918 18.9829 387.914 18.8163 387.92 18.6499V13.4317H386.678V19.0356C386.664 19.3949 386.701 19.7543 386.788 20.1024C386.844 20.2729 386.955 20.4182 387.101 20.5143C387.248 20.6103 387.421 20.6513 387.593 20.6305H387.593Z" fill="#77B900"/>
<path d="M438.198 36.4825V33.433H432.015C432.009 33.3055 432 33.2062 432 33.1075C432 27.3708 432.001 21.6341 432.003 15.8973C432.004 15.7278 432.031 15.5594 432.084 15.3983C432.54 14.0161 433.007 12.6355 433.461 11.2499C433.467 11.2119 433.48 11.1753 433.5 11.1423C433.52 11.1093 433.546 11.0805 433.576 11.0576C433.607 11.0347 433.642 11.0181 433.68 11.0088C433.717 10.9994 433.756 10.9975 433.794 11.0032C441.36 11.0091 448.926 11.0108 456.491 11.0082H456.745V11.3292C456.745 16.2734 456.747 21.2177 456.749 26.1619C456.753 26.2542 456.737 26.3463 456.701 26.4315C456.666 26.5168 456.612 26.5932 456.543 26.6554C454.349 28.8395 452.157 31.028 449.969 33.2206C449.907 33.289 449.831 33.3428 449.745 33.3782C449.66 33.4135 449.568 33.4296 449.475 33.4252C448.146 33.4158 446.812 33.4252 445.48 33.4152C445.365 33.4081 445.25 33.4268 445.143 33.47C445.036 33.5132 444.939 33.5797 444.861 33.6647C443.983 34.5618 443.091 35.4462 442.197 36.3261C442.109 36.4185 441.992 36.4774 441.865 36.4924C440.675 36.5041 439.483 36.4991 438.295 36.498C438.262 36.4952 438.23 36.49 438.198 36.4825ZM435.843 13.3031V29.5851H441.272V32.6712C441.356 32.5913 441.403 32.5486 441.448 32.5048C442.365 31.5922 443.283 30.6812 444.193 29.7631C444.249 29.7019 444.318 29.6538 444.395 29.6221C444.471 29.5904 444.554 29.5759 444.636 29.5795C446.535 29.5858 448.433 29.5845 450.332 29.5757C450.485 29.5691 450.631 29.5086 450.744 29.4049C451.927 28.2405 453.098 27.0596 454.278 25.8908C454.339 25.8345 454.386 25.7656 454.417 25.689C454.449 25.6124 454.463 25.5298 454.458 25.4472C454.457 21.4929 454.457 17.5391 454.457 13.5858V13.3031H435.843ZM444.364 17.9937V24.8756H442.067V17.9937H444.363H444.364ZM450.539 24.8844H448.284V17.9932H450.539V24.8844Z" fill="#77B900"/>
</svg>
